<svg xmlns="http://www.w3.org/2000/svg" height="800" width="1200" viewBox="-4.2 -6 36.4 36"><rect fill="#37c6d0" rx="1.167" height="24" width="21" x="7"/><path fill="#036c70" d="M7 12h21v10.833A1.167 1.167 0 0126.833 24H8.167A1.167 1.167 0 017 22.833z"/><path opacity=".5" d="M7 6h7a1 1 0 011 1v11.833A1.167 1.167 0 0113.833 20H7z"/><path fill="#1a9ba1" d="M19 15h6v6h-6z"/><circle fill="#1a9ba1" r="4" cy="6" cx="22"/><circle fill="#036c70" r="2" cy="6" cx="22"/><rect fill="#038387" rx="1.167" height="14" width="14" y="5"/><path fill="#fff" d="M9.834 9.047H6.043v2.387h3.534v1.416H6.043v3.528H4.328V7.625h5.506z"/></svg>